# xmcd
#
# Track frame offsets:
#	150
#	15847
#	29490
#	45299
#	60887
#	78176
#	96140
#	113412
#	129234
#	140621
#
# Disc length: 2162 seconds
#
# Revision: 1
# Processed by: cddbd v1.5.1PL0 Copyright (c) Steve Scherf et al.
# Submitted via: audiograbber 1.83.01
#
DISCID=6508700a
DTITLE=The Nitty Gritty Dirt Band - Partners, Brothers and Friends
DYEAR=1900
DGENRE=
TTITLE0=Modern Day Romance
TTITLE1=Other Side of the Hill
TTITLE2=Home Again in My Heart
TTITLE3=Telluride
TTITLE4=Old Upright Piano
TTITLE5=Partners, Brothers and Friends
TTITLE6=Redneck Riviera
TTITLE7=Queen of the Road
TTITLE8=As Long As You're Loving Me
TTITLE9=Leon McDuff
EXTD=
EXTT0=
EXTT1=
EXTT2=
EXTT3=
EXTT4=
EXTT5=
EXTT6=
EXTT7=
EXTT8=
EXTT9=
PLAYORDER=
